<?xml version="1.0" standalone="no"?>
<!DOCTYPE svg PUBLIC "-//W3C//DTD SVG 20010904//EN"
 "http://www.w3.org/TR/2001/REC-SVG-20010904/DTD/svg10.dtd">
<svg version="1.0" xmlns="http://www.w3.org/2000/svg"
 width="400.000000pt" height="400.000000pt" viewBox="0 0 400.000000 400.000000"
 preserveAspectRatio="xMidYMid meet">

<g transform="translate(0.000000,400.000000) scale(0.100000,-0.100000)"
fill="#000000" stroke="none">
<path d="M616 3754 c-3 -9 -6 -270 -6 -580 l0 -564 -87 0 c-49 0 -94 -4 -101
-8 -9 -7 -12 -40 -10 -133 l3 -124 95 -5 95 -5 3 -147 3 -148 -306 0 -305 0 0
-105 0 -105 305 0 306 0 -2 -95 c-1 -52 -5 -92 -10 -89 -5 3 -9 0 -9 -5 0 -6
-11 -11 -25 -11 -20 0 -25 -5 -25 -25 0 -22 4 -25 36 -25 l36 0 -7 -192 c-4
-106 -9 -197 -12 -201 -3 -5 -11 -6 -18 -3 -12 4 -25 -13 -25 -35 0 -5 11 -9
25 -9 25 0 25 0 25 -95 l0 -95 -102 -2 c-109 -3 -143 -3 -360 -6 -115 -2 -138
-4 -138 -17 0 -11 12 -15 43 -17 l42 -1 -40 -7 c-24 -5 -10 -6 37 -3 69 5 78
3 78 -12 0 -14 6 -17 33 -12 17 3 40 8 50 12 12 5 17 2 17 -10 0 -12 5 -15 20
-10 11 3 20 3 20 -2 0 -5 25 -10 55 -11 31 -1 64 -6 73 -11 9 -5 45 -17 80
-27 34 -11 62 -22 62 -26 0 -4 7 -5 15 -2 8 4 15 1 15 -5 0 -8 -87 -11 -300
-11 -193 0 -300 -4 -300 -10 0 -6 106 -10 299 -10 l298 0 6 -67 c4 -38 7 -123
7 -190 0 -67 3 -128 6 -137 6 -14 118 -16 1168 -16 890 0 1165 3 1174 12 9 9
12 68 12 205 l0 193 478 2 c296 1 437 4 372 8 -58 4 -254 8 -437 9 -182 0
-338 4 -347 7 -24 9 -19 19 11 22 14 1 34 9 43 17 9 8 26 15 38 15 11 0 33 5
49 11 15 7 48 12 73 13 52 2 90 13 90 27 0 5 14 9 31 9 17 0 28 -4 24 -10 -4
-6 6 -10 24 -10 16 0 33 4 36 10 3 5 36 10 73 11 76 1 114 9 112 24 0 6 14 13
32 16 28 5 -67 9 -407 14 -33 0 -113 1 -177 3 l-118 2 0 440 0 440 63 2 c34 1
71 2 82 3 11 1 172 3 358 4 l337 1 0 95 0 95 -420 0 -420 0 0 851 c0 567 -3
857 -10 870 -10 19 -34 19 -1174 19 -1052 0 -1164 -2 -1170 -16z m2209 -238
c0 -13 -6 -22 -15 -22 -9 0 -15 9 -15 21 0 12 7 22 15 22 9 1 15 -7 15 -21z
m-865 -132 l0 -75 -27 3 c-25 3 -28 7 -31 46 -3 37 0 44 17 49 12 3 21 13 21
22 0 16 8 31 17 31 2 0 3 -34 3 -76z m155 46 c-5 -8 -11 -8 -17 -2 -6 6 -7 16
-3 22 5 8 11 8 17 2 6 -6 7 -16 3 -22z m110 1 c-9 -16 -25 -3 -18 15 4 10 9
12 15 6 6 -6 7 -15 3 -21z m305 -52 l0 -69 -30 0 c-23 0 -31 5 -36 25 -8 34 3
75 21 75 8 0 15 8 15 18 0 10 3 22 6 25 16 16 24 -9 24 -74z m-1541 2 c13 -62
8 -91 -10 -58 -12 21 -39 23 -39 2 0 -8 -4 -15 -10 -15 -16 0 -9 55 16 128 9
29 30 2 43 -57z m1331 45 c0 -8 5 -16 11 -18 8 -3 8 -10 -2 -26 -11 -18 -11
-26 -2 -42 13 -20 -1 -40 -17 -24 -8 9 -14 69 -11 107 1 20 21 23 21 3z
m-1250 -81 c0 -51 -4 -66 -17 -73 -20 -10 -43 -5 -43 9 0 5 9 9 20 9 11 0 20
4 20 9 0 5 -9 11 -20 14 -16 4 -20 14 -20 44 0 46 5 53 37 53 22 0 23 -4 23
-65z m60 50 c0 -8 -4 -15 -10 -15 -5 0 -10 -16 -10 -35 0 -19 -4 -35 -10 -35
-5 0 -10 23 -10 50 0 43 3 50 20 50 11 0 20 -7 20 -15z m60 -2 c10 -17 10 -17
20 0 6 9 22 17 35 17 24 0 25 -3 25 -59 0 -50 -4 -62 -22 -75 -21 -15 -38 -13
-38 3 0 5 10 12 23 15 l22 7 -23 9 c-12 5 -25 16 -28 25 -7 17 -44 21 -44 4 0
-6 7 -9 15 -5 9 3 15 0 15 -9 0 -24 -39 -17 -51 8 -22 48 25 103 51 60z m144
1 c3 -9 6 -31 6 -50 0 -33 -2 -35 -27 -32 -32 3 -46 44 -19 54 9 3 16 10 16
16 0 5 -4 6 -10 3 -5 -3 -10 1 -10 9 0 21 36 21 44 0z m56 2 c0 -8 -4 -18 -10
-21 -5 -3 -10 -19 -10 -36 0 -16 -4 -29 -10 -29 -5 0 -10 23 -10 50 0 43 3 50
20 50 11 0 20 -6 20 -14z m108 -38 c2 -29 -1 -48 -7 -48 -6 0 -11 16 -11 35 0
19 -4 35 -10 35 -5 0 -10 -16 -10 -35 0 -19 -4 -35 -10 -35 -5 0 -10 23 -10
51 0 49 1 50 28 47 25 -3 27 -7 30 -50z m32 17 c0 -19 5 -35 10 -35 6 0 10 16
10 35 0 19 5 35 10 35 6 0 10 -23 10 -51 0 -49 -1 -50 -27 -47 -26 3 -28 7
-31 51 -2 28 1 47 7 47 6 0 11 -16 11 -35z m109 18 c10 -17 10 -17 11 0 0 26
15 21 27 -10 l11 -28 1 28 c1 16 7 27 15 27 12 0 12 -8 2 -47 -14 -55 -34 -67
-42 -25 -5 27 -8 28 -29 18 -13 -6 -21 -14 -18 -18 2 -5 9 -6 14 -3 5 4 9 -1
9 -9 0 -25 -39 -19 -51 7 -22 48 25 103 50 60z m143 -8 c8 -19 8 -31 0 -50
-27 -59 -80 -3 -56 59 9 25 43 19 56 -9z m102 9 c3 -9 6 -31 6 -50 0 -33 -2
-35 -27 -32 -32 3 -46 44 -19 54 16 6 23 25 9 23 -17 -3 -24 2 -18 11 10 16
42 12 49 -6z m194 -36 c2 -29 -1 -48 -7 -48 -6 0 -11 16 -11 35 0 19 -4 35
-10 35 -5 0 -10 -16 -10 -35 0 -19 -4 -35 -10 -35 -5 0 -10 16 -10 35 0 19 -4
35 -10 35 -5 0 -10 -16 -10 -35 0 -19 -4 -35 -10 -35 -5 0 -10 23 -10 50 l0
50 48 -2 47 -3 3 -47z m40 5 c-4 -66 -28 -70 -28 -4 0 39 4 51 16 51 12 0 14
-10 12 -47z m70 -5 c2 -29 -1 -48 -7 -48 -6 0 -11 16 -11 35 0 19 -4 35 -10
35 -5 0 -10 -16 -10 -35 0 -19 -4 -35 -10 -35 -5 0 -10 23 -10 51 0 49 1 50
28 47 25 -3 27 -7 30 -50z m42 2 c0 -27 -4 -50 -10 -50 -5 0 -10 23 -10 50 0
28 5 50 10 50 6 0 10 -22 10 -50z m50 41 c0 -5 -6 -11 -12 -14 -9 -3 -7 -9 6
-19 13 -10 16 -21 12 -36 -8 -25 -46 -30 -46 -6 0 8 5 12 10 9 13 -8 13 1 -2
24 -14 22 -4 51 17 51 8 0 15 -4 15 -9z m110 -6 c0 -8 -4 -15 -10 -15 -5 0
-10 -16 -10 -35 0 -19 -4 -35 -10 -35 -5 0 -10 23 -10 50 0 43 3 50 20 50 11
0 20 -7 20 -15z m58 -38 c3 -48 3 -48 -25 -45 -32 3 -46 44 -19 54 9 3 16 10
16 16 0 5 -4 6 -10 3 -5 -3 -10 1 -10 10 0 11 7 15 23 13 19 -3 22 -10 25 -51z
m154 28 c16 -36 -4 -78 -35 -73 -17 2 -23 11 -25 36 -2 19 -1 40 2 48 9 23 45
16 58 -11z m58 10 c0 -8 -4 -15 -10 -15 -5 0 -10 -16 -10 -35 0 -19 -4 -35
-10 -35 -5 0 -10 23 -10 50 0 43 3 50 20 50 11 0 20 -7 20 -15z m-2080 -889
c0 -2 -7 -6 -15 -10 -8 -3 -15 -1 -15 4 0 6 7 10 15 10 8 0 15 -2 15 -4z m-1
-43 c0 -11 -3 -13 -6 -5 -2 6 -9 10 -14 6 -5 -3 -9 0 -9 5 0 6 7 11 15 11 8 0
15 -8 14 -17z m1758 -250 c-301 -2 -793 -2 -1095 0 -301 1 -54 2 548 2 602 0
849 -1 547 -2z m-5 -520 c-305 -2 -800 -2 -1100 0 -301 1 -52 2 553 2 605 0
851 -1 547 -2z m-678 -302 c12 1 36 1 54 0 29 -1 33 -4 30 -23 -3 -21 -8 -23
-80 -24 l-78 -2 0 34 c0 32 1 33 27 23 15 -5 36 -9 47 -8z m131 9 c9 -14 55
-12 56 3 0 10 2 10 6 0 6 -15 93 -18 93 -3 0 6 7 10 15 10 8 0 15 -4 15 -10 0
-5 7 -10 15 -10 9 0 15 -9 15 -25 l0 -26 -122 3 c-109 3 -123 5 -126 21 -7 36
17 63 33 37z m265 -388 c65 -66 65 -208 0 -274 l-28 -28 -222 0 c-191 0 -226
2 -251 17 -32 19 -63 75 -56 101 4 14 5 13 6 -3 1 -11 5 -26 10 -33 4 -8 8 27
7 81 -1 52 -5 93 -10 90 -5 -3 -6 -29 -2 -57 4 -34 2 -46 -4 -36 -15 23 -12
75 7 108 34 59 46 61 291 62 l224 0 28 -28z m1518 -109 c-21 -2 -55 -2 -75 0
-21 2 -4 4 37 4 41 0 58 -2 38 -4z m-558 -117 c0 -3 -4 -8 -10 -11 -5 -3 -10
-1 -10 4 0 6 5 11 10 11 6 0 10 -2 10 -4z"/>
<path d="M1920 3360 c0 -11 5 -20 10 -20 6 0 10 9 10 20 0 11 -4 20 -10 20 -5
0 -10 -9 -10 -20z"/>
<path d="M2480 3360 c0 -11 5 -20 10 -20 6 0 10 9 10 20 0 11 -4 20 -10 20 -5
0 -10 -9 -10 -20z"/>
<path d="M950 3380 c0 -5 5 -10 10 -10 6 0 10 5 10 10 0 6 -4 10 -10 10 -5 0
-10 -4 -10 -10z"/>
<path d="M1030 3360 c0 -11 5 -20 10 -20 6 0 10 9 10 20 0 11 -4 20 -10 20 -5
0 -10 -9 -10 -20z"/>
<path d="M1225 3370 c-7 -12 2 -30 16 -30 5 0 9 9 9 20 0 21 -15 27 -25 10z"/>
<path d="M1300 3339 c0 -5 5 -7 10 -4 6 3 10 8 10 11 0 2 -4 4 -10 4 -5 0 -10
-5 -10 -11z"/>
<path d="M1610 3380 c0 -5 5 -10 11 -10 5 0 7 5 4 10 -3 6 -8 10 -11 10 -2 0
-4 -4 -4 -10z"/>
<path d="M1747 3384 c-10 -11 -8 -44 2 -44 6 0 13 4 16 10 8 12 -9 43 -18 34z"/>
<path d="M2560 3360 c0 -11 5 -20 10 -20 6 0 10 9 10 20 0 11 -4 20 -10 20 -5
0 -10 -9 -10 -20z"/>
<path d="M1529 993 c-13 -17 -13 -17 6 -3 11 8 22 16 24 17 2 2 0 3 -6 3 -6 0
-17 -8 -24 -17z"/>
<path d="M3528 873 c6 -2 18 -2 25 0 6 3 1 5 -13 5 -14 0 -19 -2 -12 -5z"/>
<path d="M825 310 c91 -10 1856 -10 1955 0 41 4 -397 7 -975 7 -577 0 -1018
-3 -980 -7z"/>
</g>
</svg>
